<?xml version="1.0" encoding="UTF-8" standalone="no"?>
<!DOCTYPE svg PUBLIC "-//W3C//DTD SVG 1.1//EN"
 "http://www.w3.org/Graphics/SVG/1.1/DTD/svg11.dtd">
<!-- Generated by graphviz version 2.43.0 (0)
 -->
<!-- Title: G Pages: 1 -->
<svg width="901pt" height="44pt"
 viewBox="0.00 0.00 901.00 44.00" xmlns="http://www.w3.org/2000/svg" xmlns:xlink="http://www.w3.org/1999/xlink">
<g id="graph0" class="graph" transform="scale(1 1) rotate(0) translate(4 40)">
<title>G</title>
<polygon fill="white" stroke="transparent" points="-4,4 -4,-40 897,-40 897,4 -4,4"/>
<!-- Lexer -->
<g id="node1" class="node">
<title>Lexer</title>
<polygon fill="#00aaff" stroke="black" points="147,-36 90,-36 90,0 147,0 147,-36"/>
<text text-anchor="middle" x="118.5" y="-14.3" font-family="Times,serif" font-size="14.00">Lexer</text>
</g>
<!-- Tokens -->
<g id="node6" class="node">
<title>Tokens</title>
<polygon fill="#ffaa00" stroke="black" points="249,-36 183,-36 183,0 249,0 249,-36"/>
<text text-anchor="middle" x="216" y="-14.3" font-family="Times,serif" font-size="14.00">Tokens</text>
</g>
<!-- Lexer&#45;&gt;Tokens -->
<g id="edge2" class="edge">
<title>Lexer&#45;&gt;Tokens</title>
<path fill="none" stroke="black" d="M147.12,-18C155.12,-18 164.04,-18 172.72,-18"/>
<polygon fill="black" stroke="black" points="172.72,-21.5 182.72,-18 172.72,-14.5 172.72,-21.5"/>
</g>
<!-- Parser -->
<g id="node2" class="node">
<title>Parser</title>
<polygon fill="#00aaff" stroke="black" points="348,-36 285,-36 285,0 348,0 348,-36"/>
<text text-anchor="middle" x="316.5" y="-14.3" font-family="Times,serif" font-size="14.00">Parser</text>
</g>
<!-- Nodes -->
<g id="node7" class="node">
<title>Nodes</title>
<polygon fill="#ffaa00" stroke="black" points="446,-36 384,-36 384,0 446,0 446,-36"/>
<text text-anchor="middle" x="415" y="-14.3" font-family="Times,serif" font-size="14.00">Nodes</text>
</g>
<!-- Parser&#45;&gt;Nodes -->
<g id="edge4" class="edge">
<title>Parser&#45;&gt;Nodes</title>
<path fill="none" stroke="black" d="M348.03,-18C356.2,-18 365.15,-18 373.75,-18"/>
<polygon fill="black" stroke="black" points="374,-21.5 384,-18 374,-14.5 374,-21.5"/>
</g>
<!-- Compiler -->
<g id="node3" class="node">
<title>Compiler</title>
<polygon fill="#00aaff" stroke="black" points="564,-36 482,-36 482,0 564,0 564,-36"/>
<text text-anchor="middle" x="523" y="-14.3" font-family="Times,serif" font-size="14.00">Compiler</text>
</g>
<!-- RawData -->
<g id="node8" class="node">
<title>RawData</title>
<polygon fill="#ffaa00" stroke="black" points="686,-36 600,-36 600,0 686,0 686,-36"/>
<text text-anchor="middle" x="643" y="-14.3" font-family="Times,serif" font-size="14.00">Raw Data</text>
</g>
<!-- Compiler&#45;&gt;RawData -->
<g id="edge6" class="edge">
<title>Compiler&#45;&gt;RawData</title>
<path fill="none" stroke="black" d="M564.28,-18C572.44,-18 581.14,-18 589.65,-18"/>
<polygon fill="black" stroke="black" points="589.89,-21.5 599.89,-18 589.89,-14.5 589.89,-21.5"/>
</g>
<!-- Exporter -->
<g id="node4" class="node">
<title>Exporter</title>
<polygon fill="#00aaff" stroke="black" points="802,-36 722,-36 722,0 802,0 802,-36"/>
<text text-anchor="middle" x="762" y="-14.3" font-family="Times,serif" font-size="14.00">Exporter</text>
</g>
<!-- JSON -->
<g id="node9" class="node">
<title>JSON</title>
<polygon fill="#ffaa00" stroke="black" points="893,-36 838,-36 838,0 893,0 893,-36"/>
<text text-anchor="middle" x="865.5" y="-14.3" font-family="Times,serif" font-size="14.00">JSON</text>
</g>
<!-- Exporter&#45;&gt;JSON -->
<g id="edge8" class="edge">
<title>Exporter&#45;&gt;JSON</title>
<path fill="none" stroke="black" d="M802.24,-18C810.64,-18 819.47,-18 827.77,-18"/>
<polygon fill="black" stroke="black" points="827.91,-21.5 837.91,-18 827.91,-14.5 827.91,-21.5"/>
</g>
<!-- Text -->
<g id="node5" class="node">
<title>Text</title>
<polygon fill="#ffaa00" stroke="black" points="54,-36 0,-36 0,0 54,0 54,-36"/>
<text text-anchor="middle" x="27" y="-14.3" font-family="Times,serif" font-size="14.00">Text</text>
</g>
<!-- Text&#45;&gt;Lexer -->
<g id="edge1" class="edge">
<title>Text&#45;&gt;Lexer</title>
<path fill="none" stroke="black" d="M54.37,-18C62.29,-18 71.13,-18 79.64,-18"/>
<polygon fill="black" stroke="black" points="79.76,-21.5 89.76,-18 79.76,-14.5 79.76,-21.5"/>
</g>
<!-- Tokens&#45;&gt;Parser -->
<g id="edge3" class="edge">
<title>Tokens&#45;&gt;Parser</title>
<path fill="none" stroke="black" d="M249.25,-18C257.39,-18 266.23,-18 274.73,-18"/>
<polygon fill="black" stroke="black" points="274.85,-21.5 284.85,-18 274.85,-14.5 274.85,-21.5"/>
</g>
<!-- Nodes&#45;&gt;Compiler -->
<g id="edge5" class="edge">
<title>Nodes&#45;&gt;Compiler</title>
<path fill="none" stroke="black" d="M446.09,-18C454.1,-18 462.97,-18 471.74,-18"/>
<polygon fill="black" stroke="black" points="471.93,-21.5 481.93,-18 471.93,-14.5 471.93,-21.5"/>
</g>
<!-- RawData&#45;&gt;Exporter -->
<g id="edge7" class="edge">
<title>RawData&#45;&gt;Exporter</title>
<path fill="none" stroke="black" d="M686.24,-18C694.52,-18 703.28,-18 711.77,-18"/>
<polygon fill="black" stroke="black" points="711.94,-21.5 721.94,-18 711.94,-14.5 711.94,-21.5"/>
</g>
</g>
</svg>
