<?xml version="1.0" encoding="UTF-8" standalone="no"?>
<!DOCTYPE svg PUBLIC "-//W3C//DTD SVG 1.1//EN"
 "http://www.w3.org/Graphics/SVG/1.1/DTD/svg11.dtd">
<!-- Generated by graphviz version 2.43.0 (0)
 -->
<!-- Title: G Pages: 1 -->
<svg width="1366pt" height="142pt"
 viewBox="0.00 0.00 1366.00 142.00" xmlns="http://www.w3.org/2000/svg" xmlns:xlink="http://www.w3.org/1999/xlink">
<g id="graph0" class="graph" transform="scale(1 1) rotate(0) translate(4 138)">
<title>G</title>
<polygon fill="white" stroke="transparent" points="-4,4 -4,-138 1362,-138 1362,4 -4,4"/>
<!-- Lexer -->
<g id="node1" class="node">
<title>Lexer</title>
<polygon fill="#00aaff" stroke="black" points="147,-82 90,-82 90,-46 147,-46 147,-82"/>
<text text-anchor="middle" x="118.5" y="-60.3" font-family="Times,serif" font-size="14.00">Lexer</text>
</g>
<!-- Tokens -->
<g id="node10" class="node">
<title>Tokens</title>
<polygon fill="#ffaa00" stroke="black" points="249,-82 183,-82 183,-46 249,-46 249,-82"/>
<text text-anchor="middle" x="216" y="-60.3" font-family="Times,serif" font-size="14.00">Tokens</text>
</g>
<!-- Lexer&#45;&gt;Tokens -->
<g id="edge2" class="edge">
<title>Lexer&#45;&gt;Tokens</title>
<path fill="none" stroke="black" d="M147.12,-64C155.12,-64 164.04,-64 172.72,-64"/>
<polygon fill="black" stroke="black" points="172.72,-67.5 182.72,-64 172.72,-60.5 172.72,-67.5"/>
</g>
<!-- ConcreteParser -->
<g id="node2" class="node">
<title>ConcreteParser</title>
<polygon fill="#00aaff" stroke="black" points="417,-82 285,-82 285,-46 417,-46 417,-82"/>
<text text-anchor="middle" x="351" y="-60.3" font-family="Times,serif" font-size="14.00">Concrete Parser</text>
</g>
<!-- ConcreteNodes -->
<g id="node11" class="node">
<title>ConcreteNodes</title>
<polygon fill="#ffaa00" stroke="black" points="584,-82 453,-82 453,-46 584,-46 584,-82"/>
<text text-anchor="middle" x="518.5" y="-60.3" font-family="Times,serif" font-size="14.00">Concrete Nodes</text>
</g>
<!-- ConcreteParser&#45;&gt;ConcreteNodes -->
<g id="edge4" class="edge">
<title>ConcreteParser&#45;&gt;ConcreteNodes</title>
<path fill="none" stroke="black" d="M417.41,-64C425.7,-64 434.23,-64 442.64,-64"/>
<polygon fill="black" stroke="black" points="442.84,-67.5 452.84,-64 442.84,-60.5 442.84,-67.5"/>
</g>
<!-- AbstractParser -->
<g id="node3" class="node">
<title>AbstractParser</title>
<polygon fill="#00aaff" stroke="black" points="748,-132 620,-132 620,-96 748,-96 748,-132"/>
<text text-anchor="middle" x="684" y="-110.3" font-family="Times,serif" font-size="14.00">Abstract Parser</text>
</g>
<!-- AbstractNodes -->
<g id="node12" class="node">
<title>AbstractNodes</title>
<polygon fill="#ffaa00" stroke="black" points="911,-134 784,-134 784,-98 911,-98 911,-134"/>
<text text-anchor="middle" x="847.5" y="-112.3" font-family="Times,serif" font-size="14.00">Abstract Nodes</text>
</g>
<!-- AbstractParser&#45;&gt;AbstractNodes -->
<g id="edge6" class="edge">
<title>AbstractParser&#45;&gt;AbstractNodes</title>
<path fill="none" stroke="black" d="M748.37,-114.78C756.66,-114.89 765.21,-114.99 773.64,-115.1"/>
<polygon fill="black" stroke="black" points="773.8,-118.6 783.85,-115.22 773.89,-111.6 773.8,-118.6"/>
</g>
<!-- Compiler -->
<g id="node4" class="node">
<title>Compiler</title>
<polygon fill="#00aaff" stroke="black" points="1029,-132 947,-132 947,-96 1029,-96 1029,-132"/>
<text text-anchor="middle" x="988" y="-110.3" font-family="Times,serif" font-size="14.00">Compiler</text>
</g>
<!-- RawData -->
<g id="node13" class="node">
<title>RawData</title>
<polygon fill="#ffaa00" stroke="black" points="1151,-107 1065,-107 1065,-71 1151,-71 1151,-107"/>
<text text-anchor="middle" x="1108" y="-85.3" font-family="Times,serif" font-size="14.00">Raw Data</text>
</g>
<!-- Compiler&#45;&gt;RawData -->
<g id="edge8" class="edge">
<title>Compiler&#45;&gt;RawData</title>
<path fill="none" stroke="black" d="M1029.28,-105.47C1037.53,-103.72 1046.33,-101.85 1054.93,-100.03"/>
<polygon fill="black" stroke="black" points="1055.83,-103.42 1064.89,-97.92 1054.38,-96.57 1055.83,-103.42"/>
</g>
<!-- Decompiler -->
<g id="node5" class="node">
<title>Decompiler</title>
<polygon fill="#00aaff" stroke="black" points="896.5,-80 798.5,-80 798.5,-44 896.5,-44 896.5,-80"/>
<text text-anchor="middle" x="847.5" y="-58.3" font-family="Times,serif" font-size="14.00">Decompiler</text>
</g>
<!-- Decompiler&#45;&gt;RawData -->
<g id="edge14" class="edge">
<title>Decompiler&#45;&gt;RawData</title>
<path fill="none" stroke="black" d="M906.47,-68.05C954.53,-73.07 1021.72,-80.09 1064.8,-84.59"/>
<polygon fill="black" stroke="black" points="906.83,-64.57 896.52,-67.02 906.1,-71.54 906.83,-64.57"/>
</g>
<!-- Formatter -->
<g id="node6" class="node">
<title>Formatter</title>
<polygon fill="#00aaff" stroke="black" points="728.5,-36 639.5,-36 639.5,0 728.5,0 728.5,-36"/>
<text text-anchor="middle" x="684" y="-14.3" font-family="Times,serif" font-size="14.00">Formatter</text>
</g>
<!-- Exporter -->
<g id="node7" class="node">
<title>Exporter</title>
<polygon fill="#00aaff" stroke="black" points="1267,-134 1187,-134 1187,-98 1267,-98 1267,-134"/>
<text text-anchor="middle" x="1227" y="-112.3" font-family="Times,serif" font-size="14.00">Exporter</text>
</g>
<!-- JSON -->
<g id="node14" class="node">
<title>JSON</title>
<polygon fill="#ffaa00" stroke="black" points="1358,-107 1303,-107 1303,-71 1358,-71 1358,-107"/>
<text text-anchor="middle" x="1330.5" y="-85.3" font-family="Times,serif" font-size="14.00">JSON</text>
</g>
<!-- Exporter&#45;&gt;JSON -->
<g id="edge10" class="edge">
<title>Exporter&#45;&gt;JSON</title>
<path fill="none" stroke="black" d="M1267.24,-105.56C1275.73,-103.3 1284.67,-100.93 1293.05,-98.7"/>
<polygon fill="black" stroke="black" points="1294.15,-102.03 1302.91,-96.07 1292.35,-95.26 1294.15,-102.03"/>
</g>
<!-- Importer -->
<g id="node8" class="node">
<title>Importer</title>
<polygon fill="#00aaff" stroke="black" points="1267,-80 1187,-80 1187,-44 1267,-44 1267,-80"/>
<text text-anchor="middle" x="1227" y="-58.3" font-family="Times,serif" font-size="14.00">Importer</text>
</g>
<!-- Importer&#45;&gt;JSON -->
<g id="edge16" class="edge">
<title>Importer&#45;&gt;JSON</title>
<path fill="none" stroke="black" d="M1277.18,-75.08C1286.05,-77.44 1294.99,-79.82 1302.91,-81.93"/>
<polygon fill="black" stroke="black" points="1277.81,-71.63 1267.24,-72.44 1276.01,-78.39 1277.81,-71.63"/>
</g>
<!-- Text -->
<g id="node9" class="node">
<title>Text</title>
<polygon fill="#ffaa00" stroke="black" points="54,-59 0,-59 0,-23 54,-23 54,-59"/>
<text text-anchor="middle" x="27" y="-37.3" font-family="Times,serif" font-size="14.00">Text</text>
</g>
<!-- Text&#45;&gt;Lexer -->
<g id="edge1" class="edge">
<title>Text&#45;&gt;Lexer</title>
<path fill="none" stroke="black" d="M54.37,-47.78C62.37,-49.83 71.33,-52.13 79.92,-54.34"/>
<polygon fill="black" stroke="black" points="79.21,-57.77 89.76,-56.87 80.95,-50.99 79.21,-57.77"/>
</g>
<!-- Text&#45;&gt;Formatter -->
<g id="edge12" class="edge">
<title>Text&#45;&gt;Formatter</title>
<path fill="none" stroke="black" d="M64.15,-33.89C101.7,-27.13 162.23,-18 215,-18 215,-18 215,-18 352,-18 455.01,-18 576.04,-18 639.36,-18"/>
<polygon fill="black" stroke="black" points="63.4,-30.47 54.2,-35.72 64.67,-37.35 63.4,-30.47"/>
</g>
<!-- Tokens&#45;&gt;ConcreteParser -->
<g id="edge3" class="edge">
<title>Tokens&#45;&gt;ConcreteParser</title>
<path fill="none" stroke="black" d="M249.2,-64C257.07,-64 265.83,-64 274.81,-64"/>
<polygon fill="black" stroke="black" points="274.99,-67.5 284.99,-64 274.99,-60.5 274.99,-67.5"/>
</g>
<!-- ConcreteNodes&#45;&gt;AbstractParser -->
<g id="edge5" class="edge">
<title>ConcreteNodes&#45;&gt;AbstractParser</title>
<path fill="none" stroke="black" d="M578.53,-82.05C590.1,-85.59 602.34,-89.33 614.2,-92.96"/>
<polygon fill="black" stroke="black" points="613.47,-96.4 624.06,-95.98 615.52,-89.7 613.47,-96.4"/>
</g>
<!-- ConcreteNodes&#45;&gt;Decompiler -->
<g id="edge13" class="edge">
<title>ConcreteNodes&#45;&gt;Decompiler</title>
<path fill="none" stroke="black" d="M594.34,-63.54C657.07,-63.16 744.77,-62.62 798.48,-62.29"/>
<polygon fill="black" stroke="black" points="594.08,-60.04 584.1,-63.6 594.13,-67.04 594.08,-60.04"/>
</g>
<!-- ConcreteNodes&#45;&gt;Formatter -->
<g id="edge11" class="edge">
<title>ConcreteNodes&#45;&gt;Formatter</title>
<path fill="none" stroke="black" d="M583.65,-45.95C598.77,-41.7 614.73,-37.21 629.33,-33.1"/>
<polygon fill="black" stroke="black" points="630.52,-36.4 639.2,-30.32 628.62,-29.66 630.52,-36.4"/>
</g>
<!-- AbstractNodes&#45;&gt;Compiler -->
<g id="edge7" class="edge">
<title>AbstractNodes&#45;&gt;Compiler</title>
<path fill="none" stroke="black" d="M911.27,-115.09C919.72,-114.97 928.31,-114.85 936.51,-114.73"/>
<polygon fill="black" stroke="black" points="936.71,-118.23 946.66,-114.58 936.61,-111.23 936.71,-118.23"/>
</g>
<!-- RawData&#45;&gt;Exporter -->
<g id="edge9" class="edge">
<title>RawData&#45;&gt;Exporter</title>
<path fill="none" stroke="black" d="M1151.24,-98.75C1159.61,-100.68 1168.47,-102.72 1177.05,-104.7"/>
<polygon fill="black" stroke="black" points="1176.41,-108.15 1186.94,-106.99 1177.98,-101.33 1176.41,-108.15"/>
</g>
<!-- RawData&#45;&gt;Importer -->
<g id="edge15" class="edge">
<title>RawData&#45;&gt;Importer</title>
<path fill="none" stroke="black" d="M1161.25,-76.94C1169.88,-74.95 1178.7,-72.92 1186.94,-71.01"/>
<polygon fill="black" stroke="black" points="1160.2,-73.59 1151.24,-79.25 1161.77,-80.41 1160.2,-73.59"/>
</g>
</g>
</svg>
