<?xml version="1.0" encoding="UTF-8" standalone="no"?>
<!DOCTYPE svg PUBLIC "-//W3C//DTD SVG 1.1//EN"
 "http://www.w3.org/Graphics/SVG/1.1/DTD/svg11.dtd">
<!-- Generated by graphviz version 2.43.0 (0)
 -->
<!-- Title: G Pages: 1 -->
<svg width="1366pt" height="98pt"
 viewBox="0.00 0.00 1366.00 98.00" xmlns="http://www.w3.org/2000/svg" xmlns:xlink="http://www.w3.org/1999/xlink">
<g id="graph0" class="graph" transform="scale(1 1) rotate(0) translate(4 94)">
<title>G</title>
<polygon fill="white" stroke="transparent" points="-4,4 -4,-94 1362,-94 1362,4 -4,4"/>
<!-- Lexer -->
<g id="node1" class="node">
<title>Lexer</title>
<polygon fill="#00aaff" stroke="black" points="147,-82 90,-82 90,-46 147,-46 147,-82"/>
<text text-anchor="middle" x="118.5" y="-60.3" font-family="Times,serif" font-size="14.00">Lexer</text>
</g>
<!-- Tokens -->
<g id="node8" class="node">
<title>Tokens</title>
<polygon fill="#ffaa00" stroke="black" points="249,-82 183,-82 183,-46 249,-46 249,-82"/>
<text text-anchor="middle" x="216" y="-60.3" font-family="Times,serif" font-size="14.00">Tokens</text>
</g>
<!-- Lexer&#45;&gt;Tokens -->
<g id="edge2" class="edge">
<title>Lexer&#45;&gt;Tokens</title>
<path fill="none" stroke="black" d="M147.12,-64C155.12,-64 164.04,-64 172.72,-64"/>
<polygon fill="black" stroke="black" points="172.72,-67.5 182.72,-64 172.72,-60.5 172.72,-67.5"/>
</g>
<!-- ConcreteParser -->
<g id="node2" class="node">
<title>ConcreteParser</title>
<polygon fill="#00aaff" stroke="black" points="417,-82 285,-82 285,-46 417,-46 417,-82"/>
<text text-anchor="middle" x="351" y="-60.3" font-family="Times,serif" font-size="14.00">Concrete Parser</text>
</g>
<!-- ConcreteNodes -->
<g id="node9" class="node">
<title>ConcreteNodes</title>
<polygon fill="#ffaa00" stroke="black" points="584,-82 453,-82 453,-46 584,-46 584,-82"/>
<text text-anchor="middle" x="518.5" y="-60.3" font-family="Times,serif" font-size="14.00">Concrete Nodes</text>
</g>
<!-- ConcreteParser&#45;&gt;ConcreteNodes -->
<g id="edge4" class="edge">
<title>ConcreteParser&#45;&gt;ConcreteNodes</title>
<path fill="none" stroke="black" d="M417.41,-64C425.7,-64 434.23,-64 442.64,-64"/>
<polygon fill="black" stroke="black" points="442.84,-67.5 452.84,-64 442.84,-60.5 442.84,-67.5"/>
</g>
<!-- AbstractParser -->
<g id="node3" class="node">
<title>AbstractParser</title>
<polygon fill="#00aaff" stroke="black" points="748,-90 620,-90 620,-54 748,-54 748,-90"/>
<text text-anchor="middle" x="684" y="-68.3" font-family="Times,serif" font-size="14.00">Abstract Parser</text>
</g>
<!-- AbstractNodes -->
<g id="node10" class="node">
<title>AbstractNodes</title>
<polygon fill="#ffaa00" stroke="black" points="911,-90 784,-90 784,-54 911,-54 911,-90"/>
<text text-anchor="middle" x="847.5" y="-68.3" font-family="Times,serif" font-size="14.00">Abstract Nodes</text>
</g>
<!-- AbstractParser&#45;&gt;AbstractNodes -->
<g id="edge6" class="edge">
<title>AbstractParser&#45;&gt;AbstractNodes</title>
<path fill="none" stroke="black" d="M748.37,-72C756.66,-72 765.21,-72 773.64,-72"/>
<polygon fill="black" stroke="black" points="773.85,-75.5 783.85,-72 773.85,-68.5 773.85,-75.5"/>
</g>
<!-- Compiler -->
<g id="node4" class="node">
<title>Compiler</title>
<polygon fill="#00aaff" stroke="black" points="1029,-90 947,-90 947,-54 1029,-54 1029,-90"/>
<text text-anchor="middle" x="988" y="-68.3" font-family="Times,serif" font-size="14.00">Compiler</text>
</g>
<!-- RawData -->
<g id="node11" class="node">
<title>RawData</title>
<polygon fill="#ffaa00" stroke="black" points="1151,-90 1065,-90 1065,-54 1151,-54 1151,-90"/>
<text text-anchor="middle" x="1108" y="-68.3" font-family="Times,serif" font-size="14.00">Raw Data</text>
</g>
<!-- Compiler&#45;&gt;RawData -->
<g id="edge8" class="edge">
<title>Compiler&#45;&gt;RawData</title>
<path fill="none" stroke="black" d="M1029.28,-72C1037.44,-72 1046.14,-72 1054.65,-72"/>
<polygon fill="black" stroke="black" points="1054.89,-75.5 1064.89,-72 1054.89,-68.5 1054.89,-75.5"/>
</g>
<!-- Formatter -->
<g id="node5" class="node">
<title>Formatter</title>
<polygon fill="#00aaff" stroke="black" points="728.5,-36 639.5,-36 639.5,0 728.5,0 728.5,-36"/>
<text text-anchor="middle" x="684" y="-14.3" font-family="Times,serif" font-size="14.00">Formatter</text>
</g>
<!-- Exporter -->
<g id="node6" class="node">
<title>Exporter</title>
<polygon fill="#00aaff" stroke="black" points="1267,-90 1187,-90 1187,-54 1267,-54 1267,-90"/>
<text text-anchor="middle" x="1227" y="-68.3" font-family="Times,serif" font-size="14.00">Exporter</text>
</g>
<!-- JSON -->
<g id="node12" class="node">
<title>JSON</title>
<polygon fill="#ffaa00" stroke="black" points="1358,-90 1303,-90 1303,-54 1358,-54 1358,-90"/>
<text text-anchor="middle" x="1330.5" y="-68.3" font-family="Times,serif" font-size="14.00">JSON</text>
</g>
<!-- Exporter&#45;&gt;JSON -->
<g id="edge10" class="edge">
<title>Exporter&#45;&gt;JSON</title>
<path fill="none" stroke="black" d="M1267.24,-72C1275.64,-72 1284.47,-72 1292.77,-72"/>
<polygon fill="black" stroke="black" points="1292.91,-75.5 1302.91,-72 1292.91,-68.5 1292.91,-75.5"/>
</g>
<!-- Text -->
<g id="node7" class="node">
<title>Text</title>
<polygon fill="#ffaa00" stroke="black" points="54,-59 0,-59 0,-23 54,-23 54,-59"/>
<text text-anchor="middle" x="27" y="-37.3" font-family="Times,serif" font-size="14.00">Text</text>
</g>
<!-- Text&#45;&gt;Lexer -->
<g id="edge1" class="edge">
<title>Text&#45;&gt;Lexer</title>
<path fill="none" stroke="black" d="M54.37,-47.78C62.37,-49.83 71.33,-52.13 79.92,-54.34"/>
<polygon fill="black" stroke="black" points="79.21,-57.77 89.76,-56.87 80.95,-50.99 79.21,-57.77"/>
</g>
<!-- Text&#45;&gt;Formatter -->
<g id="edge12" class="edge">
<title>Text&#45;&gt;Formatter</title>
<path fill="none" stroke="black" d="M64.15,-33.89C101.7,-27.13 162.23,-18 215,-18 215,-18 215,-18 352,-18 455.01,-18 576.04,-18 639.36,-18"/>
<polygon fill="black" stroke="black" points="63.4,-30.47 54.2,-35.72 64.67,-37.35 63.4,-30.47"/>
</g>
<!-- Tokens&#45;&gt;ConcreteParser -->
<g id="edge3" class="edge">
<title>Tokens&#45;&gt;ConcreteParser</title>
<path fill="none" stroke="black" d="M249.2,-64C257.07,-64 265.83,-64 274.81,-64"/>
<polygon fill="black" stroke="black" points="274.99,-67.5 284.99,-64 274.99,-60.5 274.99,-67.5"/>
</g>
<!-- ConcreteNodes&#45;&gt;AbstractParser -->
<g id="edge5" class="edge">
<title>ConcreteNodes&#45;&gt;AbstractParser</title>
<path fill="none" stroke="black" d="M584.12,-67.16C592.59,-67.58 601.31,-68 609.91,-68.42"/>
<polygon fill="black" stroke="black" points="609.76,-71.92 619.92,-68.91 610.1,-64.93 609.76,-71.92"/>
</g>
<!-- ConcreteNodes&#45;&gt;Formatter -->
<g id="edge11" class="edge">
<title>ConcreteNodes&#45;&gt;Formatter</title>
<path fill="none" stroke="black" d="M583.65,-45.95C598.77,-41.7 614.73,-37.21 629.33,-33.1"/>
<polygon fill="black" stroke="black" points="630.52,-36.4 639.2,-30.32 628.62,-29.66 630.52,-36.4"/>
</g>
<!-- AbstractNodes&#45;&gt;Compiler -->
<g id="edge7" class="edge">
<title>AbstractNodes&#45;&gt;Compiler</title>
<path fill="none" stroke="black" d="M911.27,-72C919.72,-72 928.31,-72 936.51,-72"/>
<polygon fill="black" stroke="black" points="936.66,-75.5 946.66,-72 936.66,-68.5 936.66,-75.5"/>
</g>
<!-- RawData&#45;&gt;Exporter -->
<g id="edge9" class="edge">
<title>RawData&#45;&gt;Exporter</title>
<path fill="none" stroke="black" d="M1151.24,-72C1159.52,-72 1168.28,-72 1176.77,-72"/>
<polygon fill="black" stroke="black" points="1176.94,-75.5 1186.94,-72 1176.94,-68.5 1176.94,-75.5"/>
</g>
</g>
</svg>
