<?xml version="1.0" encoding="UTF-8" standalone="no"?>
<!DOCTYPE svg PUBLIC "-//W3C//DTD SVG 1.1//EN"
 "http://www.w3.org/Graphics/SVG/1.1/DTD/svg11.dtd">
<!-- Generated by graphviz version 2.43.0 (0)
 -->
<!-- Title: G Pages: 1 -->
<svg width="706pt" height="44pt"
 viewBox="0.00 0.00 706.00 44.00" xmlns="http://www.w3.org/2000/svg" xmlns:xlink="http://www.w3.org/1999/xlink">
<g id="graph0" class="graph" transform="scale(1 1) rotate(0) translate(4 40)">
<title>G</title>
<polygon fill="white" stroke="transparent" points="-4,4 -4,-40 702,-40 702,4 -4,4"/>
<!-- Parser -->
<g id="node1" class="node">
<title>Parser</title>
<polygon fill="#00aaff" stroke="black" points="153,-36 90,-36 90,0 153,0 153,-36"/>
<text text-anchor="middle" x="121.5" y="-14.3" font-family="Times,serif" font-size="14.00">Parser</text>
</g>
<!-- Nodes -->
<g id="node5" class="node">
<title>Nodes</title>
<polygon fill="#ffaa00" stroke="black" points="251,-36 189,-36 189,0 251,0 251,-36"/>
<text text-anchor="middle" x="220" y="-14.3" font-family="Times,serif" font-size="14.00">Nodes</text>
</g>
<!-- Parser&#45;&gt;Nodes -->
<g id="edge2" class="edge">
<title>Parser&#45;&gt;Nodes</title>
<path fill="none" stroke="black" d="M153.03,-18C161.2,-18 170.15,-18 178.75,-18"/>
<polygon fill="black" stroke="black" points="179,-21.5 189,-18 179,-14.5 179,-21.5"/>
</g>
<!-- Compiler -->
<g id="node2" class="node">
<title>Compiler</title>
<polygon fill="#00aaff" stroke="black" points="369,-36 287,-36 287,0 369,0 369,-36"/>
<text text-anchor="middle" x="328" y="-14.3" font-family="Times,serif" font-size="14.00">Compiler</text>
</g>
<!-- RawData -->
<g id="node6" class="node">
<title>RawData</title>
<polygon fill="#ffaa00" stroke="black" points="491,-36 405,-36 405,0 491,0 491,-36"/>
<text text-anchor="middle" x="448" y="-14.3" font-family="Times,serif" font-size="14.00">Raw Data</text>
</g>
<!-- Compiler&#45;&gt;RawData -->
<g id="edge4" class="edge">
<title>Compiler&#45;&gt;RawData</title>
<path fill="none" stroke="black" d="M369.28,-18C377.44,-18 386.14,-18 394.65,-18"/>
<polygon fill="black" stroke="black" points="394.89,-21.5 404.89,-18 394.89,-14.5 394.89,-21.5"/>
</g>
<!-- Exporter -->
<g id="node3" class="node">
<title>Exporter</title>
<polygon fill="#00aaff" stroke="black" points="607,-36 527,-36 527,0 607,0 607,-36"/>
<text text-anchor="middle" x="567" y="-14.3" font-family="Times,serif" font-size="14.00">Exporter</text>
</g>
<!-- JSON -->
<g id="node7" class="node">
<title>JSON</title>
<polygon fill="#ffaa00" stroke="black" points="698,-36 643,-36 643,0 698,0 698,-36"/>
<text text-anchor="middle" x="670.5" y="-14.3" font-family="Times,serif" font-size="14.00">JSON</text>
</g>
<!-- Exporter&#45;&gt;JSON -->
<g id="edge6" class="edge">
<title>Exporter&#45;&gt;JSON</title>
<path fill="none" stroke="black" d="M607.24,-18C615.64,-18 624.47,-18 632.77,-18"/>
<polygon fill="black" stroke="black" points="632.91,-21.5 642.91,-18 632.91,-14.5 632.91,-21.5"/>
</g>
<!-- Text -->
<g id="node4" class="node">
<title>Text</title>
<polygon fill="#ffaa00" stroke="black" points="54,-36 0,-36 0,0 54,0 54,-36"/>
<text text-anchor="middle" x="27" y="-14.3" font-family="Times,serif" font-size="14.00">Text</text>
</g>
<!-- Text&#45;&gt;Parser -->
<g id="edge1" class="edge">
<title>Text&#45;&gt;Parser</title>
<path fill="none" stroke="black" d="M54.26,-18C62.24,-18 71.21,-18 79.91,-18"/>
<polygon fill="black" stroke="black" points="79.92,-21.5 89.92,-18 79.92,-14.5 79.92,-21.5"/>
</g>
<!-- Nodes&#45;&gt;Compiler -->
<g id="edge3" class="edge">
<title>Nodes&#45;&gt;Compiler</title>
<path fill="none" stroke="black" d="M251.09,-18C259.1,-18 267.97,-18 276.74,-18"/>
<polygon fill="black" stroke="black" points="276.93,-21.5 286.93,-18 276.93,-14.5 276.93,-21.5"/>
</g>
<!-- RawData&#45;&gt;Exporter -->
<g id="edge5" class="edge">
<title>RawData&#45;&gt;Exporter</title>
<path fill="none" stroke="black" d="M491.24,-18C499.52,-18 508.28,-18 516.77,-18"/>
<polygon fill="black" stroke="black" points="516.94,-21.5 526.94,-18 516.94,-14.5 516.94,-21.5"/>
</g>
</g>
</svg>
