<?xml version="1.0" encoding="UTF-8" standalone="no"?>
<!DOCTYPE svg PUBLIC "-//W3C//DTD SVG 1.1//EN"
 "http://www.w3.org/Graphics/SVG/1.1/DTD/svg11.dtd">
<!-- Generated by graphviz version 2.43.0 (0)
 -->
<!-- Title: G Pages: 1 -->
<svg width="1151pt" height="180pt"
 viewBox="0.00 0.00 1151.00 180.00" xmlns="http://www.w3.org/2000/svg" xmlns:xlink="http://www.w3.org/1999/xlink">
<g id="graph0" class="graph" transform="scale(1 1) rotate(0) translate(4 176)">
<title>G</title>
<polygon fill="white" stroke="transparent" points="-4,4 -4,-176 1147,-176 1147,4 -4,4"/>
<!-- Lexer -->
<g id="node1" class="node">
<title>Lexer</title>
<polygon fill="#00aaff" stroke="black" points="148,-141 91,-141 91,-105 148,-105 148,-141"/>
<text text-anchor="middle" x="119.5" y="-119.3" font-family="Times,serif" font-size="14.00">Lexer</text>
</g>
<!-- Tokens -->
<g id="node9" class="node">
<title>Tokens</title>
<polygon fill="#ffaa00" stroke="black" points="251,-132 185,-132 185,-96 251,-96 251,-132"/>
<text text-anchor="middle" x="218" y="-110.3" font-family="Times,serif" font-size="14.00">Tokens</text>
</g>
<!-- Lexer&#45;&gt;Tokens -->
<g id="edge2" class="edge">
<title>Lexer&#45;&gt;Tokens</title>
<path fill="none" stroke="black" d="M148.15,-120.42C156.49,-119.64 165.83,-118.77 174.89,-117.93"/>
<polygon fill="black" stroke="black" points="175.28,-121.41 184.91,-116.99 174.63,-114.44 175.28,-121.41"/>
</g>
<!-- CompilerParser -->
<g id="node2" class="node">
<title>CompilerParser</title>
<polygon fill="#00aaff" stroke="black" points="424.5,-76 291.5,-76 291.5,-40 424.5,-40 424.5,-76"/>
<text text-anchor="middle" x="358" y="-54.3" font-family="Times,serif" font-size="14.00">Compiler Parser</text>
</g>
<!-- ParserUtils -->
<g id="node6" class="node">
<title>ParserUtils</title>
<polygon fill="#00aaff" stroke="black" points="664.5,-90 566.5,-90 566.5,-54 664.5,-54 664.5,-90"/>
<text text-anchor="middle" x="615.5" y="-68.3" font-family="Times,serif" font-size="14.00">ParserUtils</text>
</g>
<!-- CompilerParser&#45;&gt;ParserUtils -->
<g id="edge14" class="edge">
<title>CompilerParser&#45;&gt;ParserUtils</title>
<path fill="none" stroke="black" d="M424.9,-56.2C456.19,-55.91 494.07,-56.36 528,-59 537.12,-59.71 546.73,-60.8 556.1,-62.06"/>
<polygon fill="black" stroke="black" points="555.75,-65.55 566.15,-63.48 556.73,-58.62 555.75,-65.55"/>
<text text-anchor="middle" x="487" y="-62.8" font-family="Times,serif" font-size="14.00">depends on</text>
</g>
<!-- CompilerNodes -->
<g id="node10" class="node">
<title>CompilerNodes</title>
<polygon fill="#ffaa00" stroke="black" points="681,-36 550,-36 550,0 681,0 681,-36"/>
<text text-anchor="middle" x="615.5" y="-14.3" font-family="Times,serif" font-size="14.00">Compiler Nodes</text>
</g>
<!-- CompilerParser&#45;&gt;CompilerNodes -->
<g id="edge4" class="edge">
<title>CompilerParser&#45;&gt;CompilerNodes</title>
<path fill="none" stroke="black" d="M424.8,-47.7C459.94,-42.2 503.33,-35.4 539.74,-29.7"/>
<polygon fill="black" stroke="black" points="540.47,-33.13 549.81,-28.13 539.39,-26.22 540.47,-33.13"/>
</g>
<!-- FormatterParser -->
<g id="node3" class="node">
<title>FormatterParser</title>
<polygon fill="#00aaff" stroke="black" points="428,-132 288,-132 288,-96 428,-96 428,-132"/>
<text text-anchor="middle" x="358" y="-110.3" font-family="Times,serif" font-size="14.00">Formatter Parser</text>
</g>
<!-- FormatterParser&#45;&gt;ParserUtils -->
<g id="edge13" class="edge">
<title>FormatterParser&#45;&gt;ParserUtils</title>
<path fill="none" stroke="black" d="M428.32,-101.97C434.3,-100.96 440.25,-99.96 446,-99 482.52,-92.93 523.54,-86.35 555.97,-81.2"/>
<polygon fill="black" stroke="black" points="556.85,-84.61 566.17,-79.59 555.75,-77.7 556.85,-84.61"/>
<text text-anchor="middle" x="487" y="-102.8" font-family="Times,serif" font-size="14.00">depends on</text>
</g>
<!-- FormatterNodes -->
<g id="node11" class="node">
<title>FormatterNodes</title>
<polygon fill="#ffaa00" stroke="black" points="685,-144 546,-144 546,-108 685,-108 685,-144"/>
<text text-anchor="middle" x="615.5" y="-122.3" font-family="Times,serif" font-size="14.00">Formatter Nodes</text>
</g>
<!-- FormatterParser&#45;&gt;FormatterNodes -->
<g id="edge10" class="edge">
<title>FormatterParser&#45;&gt;FormatterNodes</title>
<path fill="none" stroke="black" d="M428.14,-117.25C461.37,-118.81 501.34,-120.69 535.74,-122.3"/>
<polygon fill="black" stroke="black" points="535.59,-125.8 545.75,-122.77 535.92,-118.81 535.59,-125.8"/>
</g>
<!-- Compiler -->
<g id="node4" class="node">
<title>Compiler</title>
<polygon fill="#00aaff" stroke="black" points="807.5,-36 725.5,-36 725.5,0 807.5,0 807.5,-36"/>
<text text-anchor="middle" x="766.5" y="-14.3" font-family="Times,serif" font-size="14.00">Compiler</text>
</g>
<!-- RawData -->
<g id="node12" class="node">
<title>RawData</title>
<polygon fill="#ffaa00" stroke="black" points="934,-36 848,-36 848,0 934,0 934,-36"/>
<text text-anchor="middle" x="891" y="-14.3" font-family="Times,serif" font-size="14.00">Raw Data</text>
</g>
<!-- Compiler&#45;&gt;RawData -->
<g id="edge6" class="edge">
<title>Compiler&#45;&gt;RawData</title>
<path fill="none" stroke="black" d="M807.61,-18C817.14,-18 827.45,-18 837.44,-18"/>
<polygon fill="black" stroke="black" points="837.69,-21.5 847.69,-18 837.69,-14.5 837.69,-21.5"/>
</g>
<!-- Formatter -->
<g id="node5" class="node">
<title>Formatter</title>
<polygon fill="#00aaff" stroke="black" points="811,-172 722,-172 722,-136 811,-136 811,-172"/>
<text text-anchor="middle" x="766.5" y="-150.3" font-family="Times,serif" font-size="14.00">Formatter</text>
</g>
<!-- Exporter -->
<g id="node7" class="node">
<title>Exporter</title>
<polygon fill="#00aaff" stroke="black" points="1051,-36 971,-36 971,0 1051,0 1051,-36"/>
<text text-anchor="middle" x="1011" y="-14.3" font-family="Times,serif" font-size="14.00">Exporter</text>
</g>
<!-- JSON -->
<g id="node13" class="node">
<title>JSON</title>
<polygon fill="#ffaa00" stroke="black" points="1143,-36 1088,-36 1088,0 1143,0 1143,-36"/>
<text text-anchor="middle" x="1115.5" y="-14.3" font-family="Times,serif" font-size="14.00">JSON</text>
</g>
<!-- Exporter&#45;&gt;JSON -->
<g id="edge8" class="edge">
<title>Exporter&#45;&gt;JSON</title>
<path fill="none" stroke="black" d="M1051.04,-18C1059.81,-18 1069.09,-18 1077.76,-18"/>
<polygon fill="black" stroke="black" points="1077.96,-21.5 1087.96,-18 1077.96,-14.5 1077.96,-21.5"/>
</g>
<!-- Text -->
<g id="node8" class="node">
<title>Text</title>
<polygon fill="#ffaa00" stroke="black" points="54,-167 0,-167 0,-131 54,-131 54,-167"/>
<text text-anchor="middle" x="27" y="-145.3" font-family="Times,serif" font-size="14.00">Text</text>
</g>
<!-- Text&#45;&gt;Lexer -->
<g id="edge1" class="edge">
<title>Text&#45;&gt;Lexer</title>
<path fill="none" stroke="black" d="M54.18,-141.48C62.52,-139.08 71.92,-136.38 80.91,-133.8"/>
<polygon fill="black" stroke="black" points="82.16,-137.08 90.81,-130.96 80.23,-130.35 82.16,-137.08"/>
</g>
<!-- Text&#45;&gt;Formatter -->
<g id="edge12" class="edge">
<title>Text&#45;&gt;Formatter</title>
<path fill="none" stroke="black" d="M63.82,-162.45C80.24,-167.48 100.11,-172 118.5,-172 118.5,-172 118.5,-172 616.5,-172 652.2,-172 692.36,-166.84 721.98,-162.05"/>
<polygon fill="black" stroke="black" points="64.68,-159.05 54.09,-159.29 62.52,-165.71 64.68,-159.05"/>
</g>
<!-- Tokens&#45;&gt;CompilerParser -->
<g id="edge3" class="edge">
<title>Tokens&#45;&gt;CompilerParser</title>
<path fill="none" stroke="black" d="M251.01,-101.01C266.46,-94.74 285.42,-87.05 303.02,-79.9"/>
<polygon fill="black" stroke="black" points="304.67,-83.01 312.62,-76.01 302.04,-76.52 304.67,-83.01"/>
</g>
<!-- Tokens&#45;&gt;FormatterParser -->
<g id="edge9" class="edge">
<title>Tokens&#45;&gt;FormatterParser</title>
<path fill="none" stroke="black" d="M251.01,-114C259.13,-114 268.23,-114 277.6,-114"/>
<polygon fill="black" stroke="black" points="277.82,-117.5 287.82,-114 277.82,-110.5 277.82,-117.5"/>
</g>
<!-- CompilerNodes&#45;&gt;Compiler -->
<g id="edge5" class="edge">
<title>CompilerNodes&#45;&gt;Compiler</title>
<path fill="none" stroke="black" d="M681.42,-18C692.71,-18 704.3,-18 715.13,-18"/>
<polygon fill="black" stroke="black" points="715.24,-21.5 725.24,-18 715.24,-14.5 715.24,-21.5"/>
</g>
<!-- FormatterNodes&#45;&gt;Formatter -->
<g id="edge11" class="edge">
<title>FormatterNodes&#45;&gt;Formatter</title>
<path fill="none" stroke="black" d="M685.33,-138.93C694.21,-140.6 703.2,-142.29 711.78,-143.91"/>
<polygon fill="black" stroke="black" points="711.17,-147.35 721.65,-145.76 712.46,-140.47 711.17,-147.35"/>
</g>
<!-- RawData&#45;&gt;Exporter -->
<g id="edge7" class="edge">
<title>RawData&#45;&gt;Exporter</title>
<path fill="none" stroke="black" d="M934.27,-18C942.82,-18 951.89,-18 960.66,-18"/>
<polygon fill="black" stroke="black" points="960.78,-21.5 970.78,-18 960.78,-14.5 960.78,-21.5"/>
</g>
</g>
</svg>
