<?xml version="1.0" encoding="UTF-8" standalone="no"?>
<!DOCTYPE svg PUBLIC "-//W3C//DTD SVG 1.1//EN"
 "http://www.w3.org/Graphics/SVG/1.1/DTD/svg11.dtd">
<!-- Generated by graphviz version 2.43.0 (0)
 -->
<!-- Title: G Pages: 1 -->
<svg width="264pt" height="399pt"
 viewBox="0.00 0.00 263.51 399.00" xmlns="http://www.w3.org/2000/svg" xmlns:xlink="http://www.w3.org/1999/xlink">
<g id="graph0" class="graph" transform="scale(1 1) rotate(0) translate(4 395)">
<title>G</title>
<polygon fill="white" stroke="transparent" points="-4,4 -4,-395 259.51,-395 259.51,4 -4,4"/>
<!-- User -->
<g id="node1" class="node">
<title>User</title>
<polygon fill="#00aaff" stroke="black" points="170.51,-391 116.51,-391 116.51,-355 170.51,-355 170.51,-391"/>
<text text-anchor="middle" x="143.51" y="-369.3" font-family="Times,serif" font-size="14.00">User</text>
</g>
<!-- tooling -->
<g id="node2" class="node">
<title>tooling</title>
<polygon fill="#00aaff" stroke="black" points="146.01,-304 27.01,-304 27.01,-268 146.01,-268 146.01,-304"/>
<text text-anchor="middle" x="86.51" y="-282.3" font-family="Times,serif" font-size="14.00">External Tools</text>
</g>
<!-- User&#45;&gt;tooling -->
<g id="edge3" class="edge">
<title>User&#45;&gt;tooling</title>
<path fill="none" stroke="red" d="M131.97,-354.8C123.86,-342.7 112.86,-326.3 103.72,-312.67"/>
<polygon fill="red" stroke="red" points="106.5,-310.53 98.02,-304.18 100.69,-314.43 106.5,-310.53"/>
<text text-anchor="middle" x="57.5" y="-333.29" font-family="Times,serif" font-size="14.00">reads output of </text>
</g>
<!-- Code -->
<g id="node6" class="node">
<title>Code</title>
<polygon fill="#ffaa00" stroke="black" points="246.01,-250 157.01,-250 157.01,-214 246.01,-214 246.01,-250"/>
<text text-anchor="middle" x="201.51" y="-228.3" font-family="Times,serif" font-size="14.00">Boki Code</text>
</g>
<!-- User&#45;&gt;Code -->
<g id="edge1" class="edge">
<title>User&#45;&gt;Code</title>
<path fill="none" stroke="green" d="M150.62,-354.96C160.58,-331.09 178.76,-287.5 190.48,-259.41"/>
<polygon fill="green" stroke="green" points="193.72,-260.76 194.34,-250.18 187.25,-258.06 193.72,-260.76"/>
<text text-anchor="middle" x="187.51" y="-325.8" font-family="Times,serif" font-size="14.00">writes</text>
</g>
<!-- portabledata -->
<g id="node5" class="node">
<title>portabledata</title>
<polygon fill="#ffaa00" stroke="black" points="126.01,-196 71.01,-196 71.01,-160 126.01,-160 126.01,-196"/>
<text text-anchor="middle" x="98.51" y="-174.3" font-family="Times,serif" font-size="14.00">JSON</text>
</g>
<!-- tooling&#45;&gt;portabledata -->
<g id="edge4" class="edge">
<title>tooling&#45;&gt;portabledata</title>
<path fill="none" stroke="red" d="M67.55,-267.74C63.06,-262.52 58.89,-256.46 56.51,-250 50.95,-234.99 49.72,-228.49 56.51,-214 58.32,-210.13 60.79,-206.54 63.64,-203.25"/>
<polygon fill="red" stroke="red" points="66.18,-205.66 70.81,-196.13 61.25,-200.69 66.18,-205.66"/>
<text text-anchor="middle" x="102.01" y="-235.8" font-family="Times,serif" font-size="14.00">reading data</text>
<text text-anchor="middle" x="102.01" y="-220.8" font-family="Times,serif" font-size="14.00">from</text>
</g>
<!-- boki -->
<g id="node3" class="node">
<title>boki</title>
<polygon fill="#00aaff" stroke="black" points="199.51,-123 79.51,-123 79.51,-87 199.51,-87 199.51,-123"/>
<text text-anchor="middle" x="139.51" y="-101.3" font-family="Times,serif" font-size="14.00">Boki Toolchain</text>
</g>
<!-- data -->
<g id="node4" class="node">
<title>data</title>
<polygon fill="#ffaa00" stroke="black" points="197.51,-36 81.51,-36 81.51,0 197.51,0 197.51,-36"/>
<text text-anchor="middle" x="139.51" y="-14.3" font-family="Times,serif" font-size="14.00">Abstract Data</text>
</g>
<!-- boki&#45;&gt;data -->
<g id="edge6" class="edge">
<title>boki&#45;&gt;data</title>
<path fill="none" stroke="black" stroke-dasharray="5,2" d="M139.51,-86.8C139.51,-75.16 139.51,-59.55 139.51,-46.24"/>
<polygon fill="black" stroke="black" points="143.01,-46.18 139.51,-36.18 136.01,-46.18 143.01,-46.18"/>
<text text-anchor="middle" x="181.51" y="-57.8" font-family="Times,serif" font-size="14.00"> transforms</text>
</g>
<!-- portabledata&#45;&gt;boki -->
<g id="edge5" class="edge">
<title>portabledata&#45;&gt;boki</title>
<path fill="none" stroke="red" d="M108.43,-159.81C113.27,-151.44 119.18,-141.2 124.55,-131.9"/>
<polygon fill="red" stroke="red" points="127.7,-133.44 129.67,-123.03 121.64,-129.94 127.7,-133.44"/>
<text text-anchor="middle" x="74.65" y="-145.06" font-family="Times,serif" font-size="14.00">produced by</text>
</g>
<!-- Code&#45;&gt;boki -->
<g id="edge2" class="edge">
<title>Code&#45;&gt;boki</title>
<path fill="none" stroke="green" d="M193.02,-213.88C182.59,-192.87 164.8,-157 152.62,-132.44"/>
<polygon fill="green" stroke="green" points="155.67,-130.72 148.09,-123.31 149.4,-133.83 155.67,-130.72"/>
<text text-anchor="middle" x="220.01" y="-174.3" font-family="Times,serif" font-size="14.00">parsed by</text>
</g>
</g>
</svg>
