<?xml version="1.0" encoding="UTF-8" standalone="no"?>
<!DOCTYPE svg PUBLIC "-//W3C//DTD SVG 1.1//EN"
 "http://www.w3.org/Graphics/SVG/1.1/DTD/svg11.dtd">
<!-- Generated by graphviz version 2.43.0 (0)
 -->
<!-- Title: G Pages: 1 -->
<svg width="710pt" height="101pt"
 viewBox="0.00 0.00 710.00 101.00" xmlns="http://www.w3.org/2000/svg" xmlns:xlink="http://www.w3.org/1999/xlink">
<g id="graph0" class="graph" transform="scale(1 1) rotate(0) translate(4 97)">
<title>G</title>
<polygon fill="white" stroke="transparent" points="-4,4 -4,-97 706,-97 706,4 -4,4"/>
<g id="clust1" class="cluster">
<title>cluster_User</title>
<polygon fill="none" stroke="black" points="8,-8 8,-85 595,-85 595,-8 8,-8"/>
<text text-anchor="middle" x="301.5" y="-69.8" font-family="Times,serif" font-size="14.00">User</text>
</g>
<!-- raw_data -->
<g id="node1" class="node">
<title>raw_data</title>
<polygon fill="#ffaa00" stroke="black" points="110,-54 16,-54 16,-16 110,-16 110,-54"/>
<text text-anchor="middle" x="63" y="-38.8" font-family="Times,serif" font-size="14.00">JSON</text>
<text text-anchor="middle" x="63" y="-23.8" font-family="Times,serif" font-size="14.00">(Thoughts)</text>
</g>
<!-- user_transcoder -->
<g id="node3" class="node">
<title>user_transcoder</title>
<polygon fill="#00aaff" stroke="black" points="243,-54 146,-54 146,-16 243,-16 243,-54"/>
<text text-anchor="middle" x="194.5" y="-38.8" font-family="Times,serif" font-size="14.00">Transcoder</text>
<text text-anchor="middle" x="194.5" y="-23.8" font-family="Times,serif" font-size="14.00">(Brain)</text>
</g>
<!-- raw_data&#45;&gt;user_transcoder -->
<g id="edge1" class="edge">
<title>raw_data&#45;&gt;user_transcoder</title>
<path fill="none" stroke="black" d="M110.02,-28.51C118.38,-28.27 127.2,-28.2 135.84,-28.29"/>
<polygon fill="black" stroke="black" points="135.82,-31.79 145.88,-28.46 135.94,-24.79 135.82,-31.79"/>
</g>
<!-- raw_data&#45;&gt;user_transcoder -->
<g id="edge4" class="edge">
<title>raw_data&#45;&gt;user_transcoder</title>
<path fill="none" stroke="black" d="M120.29,-41.7C128.82,-41.8 137.55,-41.75 145.88,-41.54"/>
<polygon fill="black" stroke="black" points="120.09,-38.19 110.02,-41.49 119.95,-45.19 120.09,-38.19"/>
</g>
<!-- TextInHead -->
<g id="node2" class="node">
<title>TextInHead</title>
<polygon fill="#ffaa00" stroke="black" points="422,-54 279,-54 279,-16 422,-16 422,-54"/>
<text text-anchor="middle" x="350.5" y="-38.8" font-family="Times,serif" font-size="14.00">Boki Source Code</text>
<text text-anchor="middle" x="350.5" y="-23.8" font-family="Times,serif" font-size="14.00">(Imagined Text)</text>
</g>
<!-- user_hands -->
<g id="node4" class="node">
<title>user_hands</title>
<polygon fill="#00aaff" stroke="black" points="587,-54 458,-54 458,-16 587,-16 587,-54"/>
<text text-anchor="middle" x="522.5" y="-38.8" font-family="Times,serif" font-size="14.00">Transcoder</text>
<text text-anchor="middle" x="522.5" y="-23.8" font-family="Times,serif" font-size="14.00">(Eyes &amp; Hands)</text>
</g>
<!-- TextInHead&#45;&gt;user_hands -->
<g id="edge3" class="edge">
<title>TextInHead&#45;&gt;user_hands</title>
<path fill="none" stroke="black" d="M422.12,-28.34C430.55,-28.23 439.18,-28.22 447.65,-28.3"/>
<polygon fill="black" stroke="black" points="447.84,-31.8 457.89,-28.44 447.94,-24.81 447.84,-31.8"/>
</g>
<!-- TextInHead&#45;&gt;user_hands -->
<g id="edge6" class="edge">
<title>TextInHead&#45;&gt;user_hands</title>
<path fill="none" stroke="black" d="M432.19,-41.74C440.82,-41.77 449.5,-41.71 457.89,-41.56"/>
<polygon fill="black" stroke="black" points="432.15,-38.24 422.12,-41.66 432.09,-45.24 432.15,-38.24"/>
</g>
<!-- user_transcoder&#45;&gt;TextInHead -->
<g id="edge2" class="edge">
<title>user_transcoder&#45;&gt;TextInHead</title>
<path fill="none" stroke="black" d="M243.38,-28.7C251.44,-28.44 260,-28.29 268.62,-28.26"/>
<polygon fill="black" stroke="black" points="268.75,-31.76 278.75,-28.27 268.76,-24.76 268.75,-31.76"/>
</g>
<!-- user_transcoder&#45;&gt;TextInHead -->
<g id="edge5" class="edge">
<title>user_transcoder&#45;&gt;TextInHead</title>
<path fill="none" stroke="black" d="M253.59,-41.57C261.81,-41.73 270.33,-41.78 278.75,-41.73"/>
<polygon fill="black" stroke="black" points="253.47,-38.06 243.38,-41.3 253.29,-45.06 253.47,-38.06"/>
</g>
<!-- TextInFile -->
<g id="node5" class="node">
<title>TextInFile</title>
<polygon fill="#ffaa00" stroke="black" points="702,-53 623,-53 623,-17 702,-17 702,-53"/>
<text text-anchor="middle" x="662.5" y="-31.3" font-family="Times,serif" font-size="14.00">Text File</text>
</g>
<!-- user_hands&#45;&gt;TextInFile -->
<g id="edge7" class="edge">
<title>user_hands&#45;&gt;TextInFile</title>
<path fill="none" stroke="black" d="M587.25,-28.27C595.79,-28.21 604.44,-28.29 612.67,-28.51"/>
<polygon fill="black" stroke="black" points="612.71,-32.02 622.83,-28.87 612.95,-25.02 612.71,-32.02"/>
</g>
<!-- user_hands&#45;&gt;TextInFile -->
<g id="edge8" class="edge">
<title>user_hands&#45;&gt;TextInFile</title>
<path fill="none" stroke="black" d="M597.52,-41.73C606.25,-41.68 614.87,-41.48 622.83,-41.13"/>
<polygon fill="black" stroke="black" points="597.25,-38.23 587.25,-41.73 597.25,-45.23 597.25,-38.23"/>
</g>
</g>
</svg>
